<svg width="49" height="49" viewBox="0 0 49 49" fill="none" xmlns="http://www.w3.org/2000/svg%22%3E">

<path fill-rule="evenodd" clip-rule="evenodd" d="M4.89993 9.80005C4.46675 9.80005 4.0513 9.97213 3.74499 10.2784C3.43868 10.5848 3.2666 11.0002 3.2666 11.4334C3.2666 11.8666 3.43868 12.282 3.74499 12.5883C4.0513 12.8946 4.46675 13.0667 4.89993 13.0667H44.0999C44.5331 13.0667 44.9486 12.8946 45.2549 12.5883C45.5612 12.282 45.7333 11.8666 45.7333 11.4334C45.7333 11.0002 45.5612 10.5848 45.2549 10.2784C44.9486 9.97213 44.5331 9.80005 44.0999 9.80005H4.89993ZM3.2666 24.5C3.2666 24.0669 3.43868 23.6514 3.74499 23.3451C4.0513 23.0388 4.46675 22.8667 4.89993 22.8667H44.0999C44.5331 22.8667 44.9486 23.0388 45.2549 23.3451C45.5612 23.6514 45.7333 24.0669 45.7333 24.5C45.7333 24.9332 45.5612 25.3487 45.2549 25.655C44.9486 25.9613 44.5331 26.1334 44.0999 26.1334H4.89993C4.46675 26.1334 4.0513 25.9613 3.74499 25.655C3.43868 25.3487 3.2666 24.9332 3.2666 24.5V24.5ZM3.2666 37.5667C3.2666 37.1335 3.43868 36.7181 3.74499 36.4118C4.0513 36.1055 4.46675 35.9334 4.89993 35.9334H44.0999C44.5331 35.9334 44.9486 36.1055 45.2549 36.4118C45.5612 36.7181 45.7333 37.1335 45.7333 37.5667C45.7333 37.9999 45.5612 38.4154 45.2549 38.7217C44.9486 39.028 44.5331 39.2001 44.0999 39.2001H4.89993C4.46675 39.2001 4.0513 39.028 3.74499 38.7217C3.43868 38.4154 3.2666 37.9999 3.2666 37.5667V37.5667Z" fill="white"/>
</svg>